<svg id="Capa_1" enable-background="new 0 0 512.028 512.028" height="512" viewBox="0 0 512.028 512.028" width="512" xmlns="http://www.w3.org/2000/svg"><g><path d="m482.028 196c0-51.575-15.208-100.227-42.821-136.995-28.578-38.05-66.974-59.005-108.117-59.005-38.931 0-75.838 19.048-103.924 53.636-23.863 29.389-39.533 67.844-44.922 109.655-46.122-5.937-87.149 6.454-115.737 35.044-29.093 29.092-41.425 71.06-34.727 118.173 6.473 45.524 30.121 90.68 66.59 127.149 36.469 36.468 81.625 60.117 127.149 66.59 8.382 1.192 16.596 1.781 24.608 1.781 37.024 0 69.648-12.591 93.564-36.507 24.025-24.025 36.607-56.835 36.493-94.067 60.484-26.824 101.844-101.136 101.844-185.454zm-231.572-123.453c20.404-25.127 46.141-39.907 73.157-42.219 32.055 47.37 30.589 110.681-4.446 156.568-7.662 10.036-14.075 20.802-19.198 32.173-26.579-23.446-56.932-40.465-88.266-49.594 4.383-37.234 17.935-71.29 38.753-96.928zm-20.713 407.999c-39.133-5.564-78.255-26.198-110.159-58.103-31.904-31.903-52.539-71.025-58.102-110.158-4.915-34.567 2.604-65.219 21.198-87.236 56.159 10.833 99.879 56.655 107.552 113.873 8.267 61.632 50.711 112.462 107.628 132.792-19.329 9.322-42.663 12.449-68.117 8.832zm97.778-31.739c-56.159-10.832-99.88-56.655-107.554-113.873-8.266-61.633-50.71-112.463-107.628-132.793 19.328-9.323 42.663-12.45 68.12-8.832 39.133 5.564 78.254 26.199 110.158 58.103 31.903 31.904 52.538 71.025 58.103 110.159 4.913 34.566-2.606 65.219-21.199 87.236zm49.59-99.398c-7.064-37.968-25.939-75.336-54.079-107.266 4.653-13.304 11.349-25.735 19.982-37.041 37.735-49.426 43.665-115.381 17.794-170.003 20.259 7.074 38.97 21.362 54.411 41.923 23.737 31.605 36.81 73.859 36.81 118.979 0 38.343-9.33 74.388-26.98 104.239-12.789 21.625-29.415 38.575-47.938 49.169z"/></g></svg>